<svg width="34" height="34" viewBox="0 0 34 34" fill="none" xmlns="http://www.w3.org/2000/svg">
<path d="M0 10.625C0 4.75698 4.75698 0 10.625 0H23.375C29.243 0 34 4.75698 34 10.625V23.375C34 29.243 29.243 34 23.375 34H0V10.625Z" fill="#DCFFEB"/>
<path d="M17 24.9688C21.401 24.9688 24.9688 21.401 24.9688 17C24.9688 12.599 21.401 9.03125 17 9.03125C12.599 9.03125 9.03125 12.599 9.03125 17C9.03125 21.401 12.599 24.9688 17 24.9688Z" stroke="#16AF4F" stroke-width="3" stroke-linecap="round" stroke-linejoin="round"/>
<path d="M17 21.7812C19.6406 21.7812 21.7812 19.6406 21.7812 17C21.7812 14.3594 19.6406 12.2188 17 12.2188C14.3594 12.2188 12.2188 14.3594 12.2188 17C12.2188 19.6406 14.3594 21.7812 17 21.7812Z" stroke="#16AF4F" stroke-width="3" stroke-linecap="round" stroke-linejoin="round"/>
<path d="M17 18.5938C17.8802 18.5938 18.5938 17.8802 18.5938 17C18.5938 16.1198 17.8802 15.4062 17 15.4062C16.1198 15.4062 15.4062 16.1198 15.4062 17C15.4062 17.8802 16.1198 18.5938 17 18.5938Z" stroke="#16AF4F" stroke-width="3" stroke-linecap="round" stroke-linejoin="round"/>
</svg>
