<svg width="34" height="34" viewBox="0 0 34 34" fill="none" xmlns="http://www.w3.org/2000/svg">
<path d="M0 10.625C0 4.75698 4.75698 0 10.625 0H23.375C29.243 0 34 4.75698 34 10.625V23.375C34 29.243 29.243 34 23.375 34H0V10.625Z" fill="#DFEEF6"/>
<path d="M21.9583 16.2917H12.0417C11.2593 16.2917 10.625 16.9259 10.625 17.7083V22.6667C10.625 23.4491 11.2593 24.0833 12.0417 24.0833H21.9583C22.7407 24.0833 23.375 23.4491 23.375 22.6667V17.7083C23.375 16.9259 22.7407 16.2917 21.9583 16.2917Z" stroke="#2295F2" stroke-width="3" stroke-linecap="round" stroke-linejoin="round"/>
<path d="M13.4584 16.2917V13.4583C13.4584 12.519 13.8316 11.6182 14.4957 10.954C15.16 10.2898 16.0608 9.91669 17.0001 9.91669C17.9394 9.91669 18.8402 10.2898 19.5044 10.954C20.1686 11.6182 20.5417 12.519 20.5417 13.4583V16.2917" stroke="#2295F2" stroke-width="3" stroke-linecap="round" stroke-linejoin="round"/>
</svg>
